<svg width="120" height="120" viewBox="0 0 120 120" fill="none" xmlns="http://www.w3.org/2000/svg">
<rect width="120" height="120" fill="#FFF9F9"/>
<rect width="1920" height="10516" transform="translate(-788 -2393)" fill="white"/>
<path d="M105 45H90V25H95V15H25V25H30V45H15C12.25 45 10 47.25 10 50V100C10 102.75 12.25 105 15 105H105C107.75 105 110 102.75 110 100V50C110 47.25 107.75 45 105 45ZM20 55H30V95H20V55ZM50 75V95H40V25H80V95H70V75H50ZM100 95H90V55H100V95Z" fill="#00264C"/>
<path d="M75 40H65V30H55V40H45V50H55V60H65V50H75V40Z" fill="#00264C"/>
</svg>
